<?xml version="1.0" encoding="UTF-8" standalone="no"?>
<svg
   xmlns:dc="http://purl.org/dc/elements/1.1/"
   xmlns:cc="http://creativecommons.org/ns#"
   xmlns:rdf="http://www.w3.org/1999/02/22-rdf-syntax-ns#"
   xmlns:svg="http://www.w3.org/2000/svg"
   xmlns="http://www.w3.org/2000/svg"
   xmlns:sodipodi="http://sodipodi.sourceforge.net/DTD/sodipodi-0.dtd"
   xmlns:inkscape="http://www.inkscape.org/namespaces/inkscape"
   version="1.1"
   id="svg851"
   xml:space="preserve"
   width="384"
   height="384"
   viewBox="0 0 384 384"
   sodipodi:docname="branch_support.svg"
   inkscape:version="1.0.2 (e86c8708, 2021-01-15)"><metadata
     id="metadata857"><rdf:RDF><cc:Work
         rdf:about=""><dc:format>image/svg+xml</dc:format><dc:type
           rdf:resource="http://purl.org/dc/dcmitype/StillImage" /><dc:title></dc:title></cc:Work></rdf:RDF></metadata><defs
     id="defs855"><clipPath
       clipPathUnits="userSpaceOnUse"
       id="clipPath951"><path
         d="M 36,36 H 259.2 V 253.44 H 36 Z"
         id="path949" /></clipPath><clipPath
       clipPathUnits="userSpaceOnUse"
       id="clipPath961"><path
         d="M 36,36 H 259.2 V 253.44 H 36 Z"
         id="path959" /></clipPath><clipPath
       clipPathUnits="userSpaceOnUse"
       id="clipPath971"><path
         d="M 36,36 H 259.2 V 253.44 H 36 Z"
         id="path969" /></clipPath><clipPath
       clipPathUnits="userSpaceOnUse"
       id="clipPath981"><path
         d="M 36,36 H 259.2 V 253.44 H 36 Z"
         id="path979" /></clipPath><clipPath
       clipPathUnits="userSpaceOnUse"
       id="clipPath991"><path
         d="M 36,36 H 259.2 V 253.44 H 36 Z"
         id="path989" /></clipPath></defs><sodipodi:namedview
     pagecolor="#ffffff"
     bordercolor="#666666"
     borderopacity="1"
     objecttolerance="10"
     gridtolerance="10"
     guidetolerance="10"
     inkscape:pageopacity="0"
     inkscape:pageshadow="2"
     inkscape:window-width="1742"
     inkscape:window-height="1004"
     id="namedview853"
     showgrid="false"
     inkscape:zoom="1.609375"
     inkscape:cx="117.43689"
     inkscape:cy="145.05124"
     inkscape:window-x="0"
     inkscape:window-y="25"
     inkscape:window-maximized="0"
     inkscape:current-layer="g859" /><g
     id="g859"
     inkscape:groupmode="layer"
     inkscape:label="branch_support"
     transform="matrix(1.3333333,0,0,-1.3333333,0,384)"><path
       d="M 0,0 H 288 V 288 H 0 Z"
       style="fill:#ffffff;fill-opacity:1;fill-rule:nonzero;stroke:none"
       id="path861" /><path
       d="M 36,36 H 259.2 V 253.44 H 36 Z"
       style="fill:#ffffff;fill-opacity:1;fill-rule:nonzero;stroke:none"
       id="path863" /><path
       d="M 46.145455,36 V 32.5"
       style="fill:#000000;fill-opacity:1;fill-rule:nonzero;stroke:#000000;stroke-width:0.8;stroke-linecap:butt;stroke-linejoin:round;stroke-miterlimit:10;stroke-dasharray:none;stroke-opacity:1"
       id="path865" /><text
       transform="matrix(1,0,0,-1,38.19233,21.40625)"
       style="font-variant:normal;font-weight:normal;font-size:10px;font-family:DejaVuSans;-inkscape-font-specification:DejaVuSans;writing-mode:lr-tb;fill:#000000;fill-opacity:1;fill-rule:nonzero;stroke:none"
       id="text869"><tspan
         x="0 6.3600001 9.54"
         y="0"
         sodipodi:role="line"
         id="tspan867">0.0</tspan></text><path
       d="M 87.15,36 V 32.5"
       style="fill:#000000;fill-opacity:1;fill-rule:nonzero;stroke:#000000;stroke-width:0.8;stroke-linecap:butt;stroke-linejoin:round;stroke-miterlimit:10;stroke-dasharray:none;stroke-opacity:1"
       id="path871" /><text
       transform="matrix(1,0,0,-1,79.196875,21.40625)"
       style="font-variant:normal;font-weight:normal;font-size:10px;font-family:DejaVuSans;-inkscape-font-specification:DejaVuSans;writing-mode:lr-tb;fill:#000000;fill-opacity:1;fill-rule:nonzero;stroke:none"
       id="text875"><tspan
         x="0 6.3600001 9.54"
         y="0"
         sodipodi:role="line"
         id="tspan873">0.2</tspan></text><path
       d="M 128.15454,36 V 32.5"
       style="fill:#000000;fill-opacity:1;fill-rule:nonzero;stroke:#000000;stroke-width:0.8;stroke-linecap:butt;stroke-linejoin:round;stroke-miterlimit:10;stroke-dasharray:none;stroke-opacity:1"
       id="path877" /><text
       transform="matrix(1,0,0,-1,120.20142,21.40625)"
       style="font-variant:normal;font-weight:normal;font-size:10px;font-family:DejaVuSans;-inkscape-font-specification:DejaVuSans;writing-mode:lr-tb;fill:#000000;fill-opacity:1;fill-rule:nonzero;stroke:none"
       id="text881"><tspan
         x="0 6.3600001 9.54"
         y="0"
         sodipodi:role="line"
         id="tspan879">0.4</tspan></text><path
       d="M 169.15909,36 V 32.5"
       style="fill:#000000;fill-opacity:1;fill-rule:nonzero;stroke:#000000;stroke-width:0.8;stroke-linecap:butt;stroke-linejoin:round;stroke-miterlimit:10;stroke-dasharray:none;stroke-opacity:1"
       id="path883" /><text
       transform="matrix(1,0,0,-1,161.20597,21.40625)"
       style="font-variant:normal;font-weight:normal;font-size:10px;font-family:DejaVuSans;-inkscape-font-specification:DejaVuSans;writing-mode:lr-tb;fill:#000000;fill-opacity:1;fill-rule:nonzero;stroke:none"
       id="text887"><tspan
         x="0 6.3600001 9.54"
         y="0"
         sodipodi:role="line"
         id="tspan885">0.6</tspan></text><path
       d="M 210.16364,36 V 32.5"
       style="fill:#000000;fill-opacity:1;fill-rule:nonzero;stroke:#000000;stroke-width:0.8;stroke-linecap:butt;stroke-linejoin:round;stroke-miterlimit:10;stroke-dasharray:none;stroke-opacity:1"
       id="path889" /><text
       transform="matrix(1,0,0,-1,202.21051,21.40625)"
       style="font-variant:normal;font-weight:normal;font-size:10px;font-family:DejaVuSans;-inkscape-font-specification:DejaVuSans;writing-mode:lr-tb;fill:#000000;fill-opacity:1;fill-rule:nonzero;stroke:none"
       id="text893"><tspan
         x="0 6.3600001 9.54"
         y="0"
         sodipodi:role="line"
         id="tspan891">0.8</tspan></text><path
       d="M 251.16818,36 V 32.5"
       style="fill:#000000;fill-opacity:1;fill-rule:nonzero;stroke:#000000;stroke-width:0.8;stroke-linecap:butt;stroke-linejoin:round;stroke-miterlimit:10;stroke-dasharray:none;stroke-opacity:1"
       id="path895" /><text
       transform="matrix(1,0,0,-1,243.21506,21.40625)"
       style="font-variant:normal;font-weight:normal;font-size:10px;font-family:DejaVuSans;-inkscape-font-specification:DejaVuSans;writing-mode:lr-tb;fill:#000000;fill-opacity:1;fill-rule:nonzero;stroke:none"
       id="text899"><tspan
         x="0 6.3600001 9.54"
         y="0"
         sodipodi:role="line"
         id="tspan897">1.0</tspan></text><text
       transform="scale(1,-1)"
       style="font-variant:normal;font-weight:normal;font-size:10px;font-family:DejaVuSans;-inkscape-font-specification:DejaVuSans;writing-mode:lr-tb;fill:#000000;fill-opacity:1;fill-rule:nonzero;stroke:none"
       id="text903"
       x="33.240627"
       y="-7.734375"><tspan
         x="33.240627 38.990627 43.100624 49.230625 54.730625 58.650623 61.430626 67.550629 73.890625 77.070625 83.190628"
         y="-7.734375"
         sodipodi:role="line"
         id="tspan901">Fraction of gene trees which support branch</tspan></text><path
       d="M 36,45.883636 H 32.5"
       style="fill:#000000;fill-opacity:1;fill-rule:nonzero;stroke:#000000;stroke-width:0.8;stroke-linecap:butt;stroke-linejoin:round;stroke-miterlimit:10;stroke-dasharray:none;stroke-opacity:1"
       id="path905" /><text
       transform="matrix(1,0,0,-1,13.09375,42.086761)"
       style="font-variant:normal;font-weight:normal;font-size:10px;font-family:DejaVuSans;-inkscape-font-specification:DejaVuSans;writing-mode:lr-tb;fill:#000000;fill-opacity:1;fill-rule:nonzero;stroke:none"
       id="text909"><tspan
         x="0 6.3600001 9.54"
         y="0"
         sodipodi:role="line"
         id="tspan907">0.0</tspan></text><path
       d="M 36,85.561944 H 32.5"
       style="fill:#000000;fill-opacity:1;fill-rule:nonzero;stroke:#000000;stroke-width:0.8;stroke-linecap:butt;stroke-linejoin:round;stroke-miterlimit:10;stroke-dasharray:none;stroke-opacity:1"
       id="path911" /><text
       transform="matrix(1,0,0,-1,13.09375,81.765069)"
       style="font-variant:normal;font-weight:normal;font-size:10px;font-family:DejaVuSans;-inkscape-font-specification:DejaVuSans;writing-mode:lr-tb;fill:#000000;fill-opacity:1;fill-rule:nonzero;stroke:none"
       id="text915"><tspan
         x="0 6.3600001 9.54"
         y="0"
         sodipodi:role="line"
         id="tspan913">0.2</tspan></text><path
       d="M 36,125.24025 H 32.5"
       style="fill:#000000;fill-opacity:1;fill-rule:nonzero;stroke:#000000;stroke-width:0.8;stroke-linecap:butt;stroke-linejoin:round;stroke-miterlimit:10;stroke-dasharray:none;stroke-opacity:1"
       id="path917" /><text
       transform="matrix(1,0,0,-1,13.09375,121.44338)"
       style="font-variant:normal;font-weight:normal;font-size:10px;font-family:DejaVuSans;-inkscape-font-specification:DejaVuSans;writing-mode:lr-tb;fill:#000000;fill-opacity:1;fill-rule:nonzero;stroke:none"
       id="text921"><tspan
         x="0 6.3600001 9.54"
         y="0"
         sodipodi:role="line"
         id="tspan919">0.4</tspan></text><path
       d="M 36,164.91856 H 32.5"
       style="fill:#000000;fill-opacity:1;fill-rule:nonzero;stroke:#000000;stroke-width:0.8;stroke-linecap:butt;stroke-linejoin:round;stroke-miterlimit:10;stroke-dasharray:none;stroke-opacity:1"
       id="path923" /><text
       transform="matrix(1,0,0,-1,13.09375,161.12168)"
       style="font-variant:normal;font-weight:normal;font-size:10px;font-family:DejaVuSans;-inkscape-font-specification:DejaVuSans;writing-mode:lr-tb;fill:#000000;fill-opacity:1;fill-rule:nonzero;stroke:none"
       id="text927"><tspan
         x="0 6.3600001 9.54"
         y="0"
         sodipodi:role="line"
         id="tspan925">0.6</tspan></text><path
       d="M 36,204.59687 H 32.5"
       style="fill:#000000;fill-opacity:1;fill-rule:nonzero;stroke:#000000;stroke-width:0.8;stroke-linecap:butt;stroke-linejoin:round;stroke-miterlimit:10;stroke-dasharray:none;stroke-opacity:1"
       id="path929" /><text
       transform="matrix(1,0,0,-1,13.09375,200.79999)"
       style="font-variant:normal;font-weight:normal;font-size:10px;font-family:DejaVuSans;-inkscape-font-specification:DejaVuSans;writing-mode:lr-tb;fill:#000000;fill-opacity:1;fill-rule:nonzero;stroke:none"
       id="text933"><tspan
         x="0 6.3600001 9.54"
         y="0"
         sodipodi:role="line"
         id="tspan931">0.8</tspan></text><path
       d="M 36,244.27517 H 32.5"
       style="fill:#000000;fill-opacity:1;fill-rule:nonzero;stroke:#000000;stroke-width:0.8;stroke-linecap:butt;stroke-linejoin:round;stroke-miterlimit:10;stroke-dasharray:none;stroke-opacity:1"
       id="path935" /><text
       transform="matrix(1,0,0,-1,13.09375,240.4783)"
       style="font-variant:normal;font-weight:normal;font-size:10px;font-family:DejaVuSans;-inkscape-font-specification:DejaVuSans;writing-mode:lr-tb;fill:#000000;fill-opacity:1;fill-rule:nonzero;stroke:none"
       id="text939"><tspan
         x="0 6.3600001 9.54"
         y="0"
         sodipodi:role="line"
         id="tspan937">1.0</tspan></text><text
       transform="matrix(0,1,1,0,0,0)"
       style="font-variant:normal;font-weight:normal;font-size:10px;font-family:DejaVuSans;-inkscape-font-specification:DejaVuSans;writing-mode:lr-tb;fill:#000000;fill-opacity:1;fill-rule:nonzero;stroke:none"
       id="text943"
       x="15.407501"
       y="10.015625"><tspan
         x="15.407501 21.157501"
         y="10.015625"
         sodipodi:role="line"
         id="tspan941">Fraction of branches supported by fewer genes</tspan></text><g
       id="g945"><g
         id="g947"
         clip-path="url(#clipPath951)"><path
           d="m 47.17572,45.883636 0.09623,23.720728 0.116064,1.437619 0.838887,0.71881 0.03219,4.31286 0.06746,5.031669 0.05959,0.71881 0.850109,0.71881 0.07966,4.31286 0.0498,5.031669 0.06888,0.71881 0.185827,0.71881 0.03971,0.71881 0.690919,0.71881 0.110673,4.312859 0.116656,1.43762 0.14859,0.71881 0.595828,0.71881 0.106749,2.87524 v 2.87524 l 0.111244,0.71881 0.945575,0.71881 v 0.71881 l 0.133492,0.71881 0.103868,1.43762 0.294001,1.43762 0.48752,0.71881 0.07627,3.59405 0.321559,0.71881 0.653572,0.71881 0.131425,2.87524 0.823907,0.71881 0.09607,1.43762 0.198169,4.31286 0.85323,0.71881 0.05419,2.15643 0.110086,1.43762 0.112402,1.43762 0.715708,1.43762 0.118623,2.15643 0.244736,0.71881 v 1.43762 l 0.747047,0.7188 0.06503,2.87524 0.266985,2.87524 0.555688,0.71881 0.16369,1.43762 0.07045,2.87524 0.07118,0.71881 0.67548,0.71881 0.234279,0.71881 0.229993,2.15643 0.821406,0.71881 0.08129,0.71881 0.333732,0.71881 0.08564,0.71881 0.379947,0.71881 0.613479,2.15643 0.793925,0.71881 0.285142,1.43762 0.388903,0.71881 0.289686,1.43762 0.09856,0.71881 0.826867,1.43762 0.131388,1.43762 0.948427,1.43762 v 0.71881 l 1.051398,0.71881 0.113811,0.71881 v 1.43762 l 1.056819,0.71881 v 0.71881 l 0.242187,1.43762 0.814631,0.71881 0.125942,0.71881 0.25584,0.71881 0.93924,0.71881 2.135654,2.15643 1.067827,0.71881 0.150949,0.71881 0.619942,0.71881 0.03963,0.71881 0.848719,0.71881 1.051399,0.71881 0.162587,0.71881 0.330256,0.71881 0.89631,0.71881 0.713644,0.71881 0.874377,0.71881 0.355868,0.71881 0.872552,0.71881 1.241084,1.43762 1.056818,0.71881 0.12367,0.71881 0.07346,1.43762 1.916509,0.71881 0.406904,0.71881 0.223868,0.71881 0.650902,0.71881 0.831963,0.71881 5.530499,0.71881 0.500557,0.71881 v 0.71881 l 0.309853,0.71881 v 0.71881 l 1.056818,0.71881 1.585227,1.43762 0.26285,0.71881 1.322378,0.71881 4.227275,0.71881 1.66228,0.71881 2.45433,0.71881 1.46104,0.71881 0.0295,0.71881 3.10735,0.71881 0.79685,0.71881 1.05682,0.71881 2.11363,0.71881 1.13552,1.43762 2.03494,0.71881 0.67745,0.71881 3.54982,0.71881 0.28107,0.71881 2.65821,0.71881 3.59574,0.71881 19.35432,0.71881 8.01691,0.71881 4.13921,0.71881 5.40842,0.71881 3.04612,0.71881 2.52011,0.71881 0.65035,0.71881 10.57924,0.71881 3.15939,0.71881 0.3306,0.71881 2.83986,0.71881 6.05617,0.7188 1.34155,0.71881 2.11364,0.71881 7.16775,0.71881 0.22998,0.71881 v 0.71881 l 6.14378,0.71881 4.4244,1.43762 2.11364,0.71881 0.89802,0.71881 0.15879,0.71881 v 0.71881 l 2.11364,0.71881 3.17045,0.71881 4.22728,1.43762 6.34091,1.43762 2.11363,0.71881 2.11364,1.43762 8.45454,0.71881 v 0"
           style="fill:none;stroke:#1f77b4;stroke-width:3;stroke-linecap:square;stroke-linejoin:round;stroke-miterlimit:10;stroke-dasharray:none;stroke-opacity:1"
           id="path953" /></g></g><g
       id="g955"><g
         id="g957"
         clip-path="url(#clipPath961)"><path
           d="M 148.65682,45.883636 V 219.83564"
           style="fill:none;stroke:#ffa500;stroke-width:1.5;stroke-linecap:butt;stroke-linejoin:round;stroke-miterlimit:10;stroke-dasharray:1.5, 2.475;stroke-dashoffset:0;stroke-opacity:1"
           id="path963" /></g></g><g
       id="g965"><g
         id="g967"
         clip-path="url(#clipPath971)"><path
           d="M 46.145455,219.83564 H 148.65682"
           style="fill:none;stroke:#ffa500;stroke-width:1.5;stroke-linecap:butt;stroke-linejoin:round;stroke-miterlimit:10;stroke-dasharray:1.5, 2.475;stroke-dashoffset:0;stroke-opacity:1"
           id="path973" /></g></g><g
       id="g975"><g
         id="g977"
         clip-path="url(#clipPath981)"><path
           d="M 46.145455,145.0794 H 58.892982"
           style="fill:none;stroke:#800080;stroke-width:1.5;stroke-linecap:butt;stroke-linejoin:round;stroke-miterlimit:10;stroke-dasharray:1.5, 2.475;stroke-dashoffset:0;stroke-opacity:1"
           id="path983" /></g></g><g
       id="g985"><g
         id="g987"
         clip-path="url(#clipPath991)"><path
           d="M 58.892982,145.0794 V 45.883636"
           style="fill:none;stroke:#800080;stroke-width:1.5;stroke-linecap:butt;stroke-linejoin:round;stroke-miterlimit:10;stroke-dasharray:1.5, 2.475;stroke-dashoffset:0;stroke-opacity:1"
           id="path993" /></g></g><g
       id="g995"><path
         d="M 36,36 V 253.44"
         style="fill:none;stroke:#000000;stroke-width:0.8;stroke-linecap:square;stroke-linejoin:miter;stroke-miterlimit:10;stroke-dasharray:none;stroke-opacity:1"
         id="path997" /><path
         d="M 259.2,36 V 253.44"
         style="fill:none;stroke:#000000;stroke-width:0.8;stroke-linecap:square;stroke-linejoin:miter;stroke-miterlimit:10;stroke-dasharray:none;stroke-opacity:1"
         id="path999" /><path
         d="M 36,36 H 259.2"
         style="fill:none;stroke:#000000;stroke-width:0.8;stroke-linecap:square;stroke-linejoin:miter;stroke-miterlimit:10;stroke-dasharray:none;stroke-opacity:1"
         id="path1001" /><path
         d="M 36,253.44 H 259.2"
         style="fill:none;stroke:#000000;stroke-width:0.8;stroke-linecap:square;stroke-linejoin:miter;stroke-miterlimit:10;stroke-dasharray:none;stroke-opacity:1"
         id="path1003" /><text
         transform="matrix(1,0,0,-1,21.310938,259.44)"
         style="font-variant:normal;font-weight:normal;font-size:12px;font-family:DejaVuSans;-inkscape-font-specification:DejaVuSans;writing-mode:lr-tb;fill:#000000;fill-opacity:1;fill-rule:nonzero;stroke:none"
         id="text1007"><tspan
           sodipodi:role="line"
           id="tspan1005"
           x="0"
           y="0" /></text></g></g></svg>
